<svg width="120" height="120" viewBox="0 0 120 120" fill="none" xmlns="http://www.w3.org/2000/svg">
  <!-- Cuerpo del gato comiendo -->
  <ellipse cx="60" cy="75" rx="32" ry="20" fill="#6C5CE7" opacity="0.9"/>
  
  <!-- Cabeza inclinada hacia abajo -->
  <ellipse cx="60" cy="50" rx="20" ry="18" fill="#6C5CE7" transform="rotate(10 60 50)"/>
  
  <!-- Orejas -->
  <path d="M45 35 L42 20 L55 30 Z" fill="#6C5CE7"/>
  <path d="M75 35 L78 20 L65 30 Z" fill="#6C5CE7"/>
  <path d="M47 33 L46 25 L53 31 Z" fill="#A29BFE"/>
  <path d="M73 33 L74 25 L67 31 Z" fill="#A29BFE"/>
  
  <!-- Ojos concentrados en la comida -->
  <ellipse cx="54" cy="45" rx="3" ry="2" fill="#2C3E50"/>
  <ellipse cx="66" cy="45" rx="3" ry="2" fill="#2C3E50"/>
  <circle cx="55" cy="44" r="0.8" fill="white"/>
  <circle cx="67" cy="44" r="0.8" fill="white"/>
  
  <!-- Nariz -->
  <path d="M58 52 L60 55 L62 52 Z" fill="#E74C3C"/>
  
  <!-- Boca comiendo -->
  <ellipse cx="60" cy="58" rx="4" ry="2" fill="#2C3E50"/>
  
  <!-- Cola relajada -->
  <path d="M28 75 Q18 85 25 95 Q35 100 45 90" stroke="#6C5CE7" stroke-width="7" fill="none" stroke-linecap="round"/>
  
  <!-- Patas -->
  <ellipse cx="45" cy="90" rx="6" ry="12" fill="#6C5CE7"/>
  <ellipse cx="75" cy="90" rx="6" ry="12" fill="#6C5CE7"/>
  
  <!-- Patitas -->
  <ellipse cx="45" cy="100" rx="8" ry="5" fill="#A29BFE"/>
  <ellipse cx="75" cy="100" rx="8" ry="5" fill="#A29BFE"/>
  
  <!-- Bigotes -->
  <line x1="35" y1="48" x2="25" y2="46" stroke="#2C3E50" stroke-width="1"/>
  <line x1="35" y1="53" x2="25" y2="53" stroke="#2C3E50" stroke-width="1"/>
  <line x1="85" y1="48" x2="95" y2="46" stroke="#2C3E50" stroke-width="1"/>
  <line x1="85" y1="53" x2="95" y2="53" stroke="#2C3E50" stroke-width="1"/>
  
  <!-- Plato de comida -->
  <ellipse cx="60" cy="105" rx="25" ry="8" fill="#E17055"/>
  <ellipse cx="60" cy="103" rx="23" ry="6" fill="#FDCB6E"/>
  
  <!-- Comida en el plato -->
  <circle cx="55" cy="102" r="3" fill="#D63031"/>
  <circle cx="65" cy="102" r="3" fill="#D63031"/>
  <circle cx="60" cy="104" r="2.5" fill="#D63031"/>
  <circle cx="52" cy="105" r="2" fill="#D63031"/>
  <circle cx="68" cy="105" r="2" fill="#D63031"/>
  
  <!-- Líneas de aroma -->
  <path d="M50 95 Q48 90 50 85" stroke="#6B7280" stroke-width="1" fill="none" opacity="0.4"/>
  <path d="M60 95 Q58 90 60 85" stroke="#6B7280" stroke-width="1" fill="none" opacity="0.4"/>
  <path d="M70 95 Q72 90 70 85" stroke="#6B7280" stroke-width="1" fill="none" opacity="0.4"/>
</svg>